<svg width="1058" height="1042" viewBox="0 0 1058 1042" fill="none" xmlns="http://www.w3.org/2000/svg">
<path d="M361 646H604L591 745.5L476.5 830L361 742.5V646Z" fill="#FA8359"/>
<path d="M192.832 402.255V587.755C188.033 604.955 205.165 605.254 214.331 603.254C275.131 596.054 317.5 557.246 317.5 538L316.841 522.565C312.01 409.419 402.007 314.83 515.256 314.811C604.471 314.796 691.547 315.172 736.331 316.254C839.831 318.754 851.331 273.254 862.831 246.254C872.031 224.654 855.665 223.588 846.331 225.755C738.832 222.921 490.132 218.955 355.332 225.755C220.532 232.555 190.832 346.255 192.832 402.255Z" fill="#575757"/>
<path d="M350 526C350 565.764 317.765 598 278 598C238.235 598 206 565.764 206 526C206 486.236 238.235 454 278 454C317.765 454 350 486.236 350 526Z" fill="#FFBC7A"/>
<path d="M713 555.5C693 672 612.922 781.592 497 770C312 751.5 281 676 281 555.5C281 437.035 377.706 341 497 341C616.294 341 713 437.035 713 555.5Z" fill="#FFBC7A"/>
<path d="M306 514C306 403.543 395.543 314 506 314H713V556H306V514Z" fill="#FFBC7A"/>
<path d="M515 600.591C515 600.591 552.582 603.762 557.092 592.44C561.602 581.118 548.073 567.984 543.563 557.115C539.053 546.246 540.556 539 540.556 539" stroke="#FA8359" stroke-width="20" stroke-linecap="round"/>
<g filter="url(#filter0_d_1_184)">
<path fill-rule="evenodd" clip-rule="evenodd" d="M505 453C518.807 453 530 464.193 530 478H553C553 464.193 564.193 453 578 453H729.5C733.642 453 737 456.358 737 460.5C737 464.642 733.642 468 729.5 468H717.918C719.256 471.062 720 474.444 720 478V539C720 552.807 708.807 564 695 564H578C564.193 564 553 552.807 553 539V493H530V539C530 552.807 518.807 564 505 564H388C374.193 564 363 552.807 363 539V478C363 474.444 363.744 471.062 365.082 468H292V453H505ZM387.485 468.013C382.202 468.281 378 472.65 378 478V539L378.013 539.515C378.272 544.628 382.372 548.728 387.485 548.987L388 549H505C510.523 549 515 544.523 515 539V478C515 472.477 510.523 468 505 468H388L387.485 468.013ZM577.485 468.013C572.202 468.281 568 472.65 568 478V539L568.013 539.515C568.272 544.628 572.372 548.728 577.485 548.987L578 549H695C700.523 549 705 544.523 705 539V478C705 472.477 700.523 468 695 468H578L577.485 468.013Z" fill="#00FF88"/>
</g>
<path d="M262.959 507.445C266.577 506.258 270.394 505.795 274.192 506.083C277.989 506.371 281.693 507.404 285.091 509.123C288.489 510.842 291.516 513.214 293.997 516.102C296.479 518.991 298.367 522.34 299.555 525.959C300.742 529.577 301.205 533.394 300.917 537.192C300.629 540.989 299.596 544.693 297.877 548.091C296.158 551.489 293.786 554.516 290.898 556.997C288.009 559.479 284.66 561.367 281.041 562.555L272 535L262.959 507.445Z" fill="#FA8359"/>
<path d="M343 777L420 922H214C219.2 837.512 302.167 790.13 343 777Z" fill="#00FF88"/>
<path d="M576.334 777L544 922H748C709.434 831.575 617.487 787.656 576.334 777Z" fill="#00FF88"/>
<path d="M339.5 580L404.096 658.411C406.59 626.702 457.831 609.522 487.636 608.662C504.969 608.162 548.136 607.462 582.136 608.662C611.205 609.688 632.109 640.515 642.041 662.454C668.339 634.837 693.024 602.141 708 580L705 660.5L611.5 803H426L292 685V468H312L339.5 580ZM487.636 634.662C438.931 634.662 426.907 663.436 426.958 685.947C459.337 717.859 484.624 718.952 513 716.733V700H562V714.5C579.798 715.507 602.916 700.046 626.046 678.374C620.605 662.282 604.024 643.8 594.136 634.662H487.636Z" fill="#575757"/>
<path d="M389 428H494.005" stroke="black" stroke-width="30" stroke-linecap="round"/>
<path d="M586 428H691.005" stroke="black" stroke-width="30" stroke-linecap="round"/>
<path d="M481 657C492.5 670.5 527.4 691.8 575 669" stroke="#A14848" stroke-width="20" stroke-linecap="round"/>
<circle cx="442" cy="506" r="22" fill="black"/>
<circle cx="639" cy="506" r="22" fill="black"/>
<path d="M441 875.181L477 831L522 875.181L496.5 908.812L504 922H456L463.5 908.812L441 875.181Z" fill="#006234"/>
<path d="M279 331.066V432.5C279 362.9 327 409.5 353 386C380 355 664.5 412.566 647.5 370.566C633.9 336.966 396.167 330.233 279 331.066Z" fill="#575757"/>
<defs>
<filter id="filter0_d_1_184" x="288" y="449" width="449" height="115" filterUnits="userSpaceOnUse" color-interpolation-filters="sRGB">
<feFlood flood-opacity="0" result="BackgroundImageFix"/>
<feColorMatrix in="SourceAlpha" type="matrix" values="0 0 0 0 0 0 0 0 0 0 0 0 0 0 0 0 0 0 127 0" result="hardAlpha"/>
<feOffset dx="-4" dy="-4"/>
<feComposite in2="hardAlpha" operator="out"/>
<feColorMatrix type="matrix" values="0 0 0 0 0 0 0 0 0 0 0 0 0 0 0 0 0 0 0.25 0"/>
<feBlend mode="normal" in2="BackgroundImageFix" result="effect1_dropShadow_1_184"/>
<feBlend mode="normal" in="SourceGraphic" in2="effect1_dropShadow_1_184" result="shape"/>
</filter>
</defs>
</svg>
