<svg width="940" height="910" viewBox="0 0 940 910" fill="none" xmlns="http://www.w3.org/2000/svg">
<path d="M91 257C91 164.216 166.216 89 259 89H848V653C848 745.784 772.784 821 680 821H91V257Z" fill="white"/>
<path fill-rule="evenodd" clip-rule="evenodd" d="M845.204 0.10605C875.772 -1.4214 937.214 12.9482 938.437 82.6432C939.659 152.339 938.946 458.118 938.437 602.297C927.738 702.661 851.623 904.308 632.757 907.976C413.89 911.644 179.842 909.505 90.1758 907.976C60.1173 907.975 0 891.161 0 823.913V314.957C0 140.721 142.141 0.106127 328.605 0.10605C569.493 0.10605 773.369 1.12498 845.204 0.10605ZM819.222 115.137C688.289 115.647 410.828 112.037 311.793 113.609C204.805 115.307 125.329 191.558 125.329 289.374V796.802H160.481C209.39 796.802 236.901 754.008 236.901 729.553V460.555H508.957V796.802H550.224C597.972 796.802 620.529 754.008 622.058 729.553V460.555H700.007C751.169 460.555 777.955 426.93 777.955 385.664V344.397H238.43V307.715C238.43 228.239 298.037 232.704 311.793 232.824C428.461 233.843 667.26 232.824 744.33 232.824C781.012 232.824 819.222 190.029 819.222 153.347V115.137Z" fill="url(#paint0_linear_0_1)"/>
<defs>
<linearGradient id="paint0_linear_0_1" x1="108.516" y1="111.681" x2="857.433" y2="807.102" gradientUnits="userSpaceOnUse">
<stop stop-color="#65FFB7"/>
<stop offset="0.3" stop-color="#00FF88"/>
<stop offset="0.7" stop-color="#00FF88"/>
<stop offset="1" stop-color="#006234"/>
</linearGradient>
</defs>
</svg>
